<?xml version="1.0" encoding="utf-8"?>
<!-- Generator: Adobe Illustrator 15.0.0, SVG Export Plug-In . SVG Version: 6.00 Build 0)  -->
<!DOCTYPE svg PUBLIC "-//W3C//DTD SVG 1.1//EN" "http://www.w3.org/Graphics/SVG/1.1/DTD/svg11.dtd">
<svg version="1.1" id="Capa_1" xmlns="http://www.w3.org/2000/svg" xmlns:xlink="http://www.w3.org/1999/xlink" x="0px" y="0px"
	 width="130px" height="132px" viewBox="0 0 130 132" enable-background="new 0 0 130 132" xml:space="preserve">
<g>
	<g>
		<polygon fill="#EBC300" points="17.863,111.061 -0.072,129.078 20.304,126.362 23.047,132.2 44.09,111.061 		"/>
		<g>
			<polygon opacity="0.3" fill="#FFFFFF" points="18.585,111.061 17.863,111.061 0.762,128.241 1.595,128.13 			"/>
			<polygon opacity="0.3" fill="#FFFFFF" points="23.047,131.475 23.307,131.214 21.027,126.362 20.667,126.41 			"/>
			<polygon opacity="0.3" fill="#FFFFFF" points="20.347,126.453 23.047,132.2 20.347,126.453 			"/>
		</g>
		<polygon opacity="0.1" fill="#211915" points="23.047,131.475 20.304,125.636 0.762,128.241 -0.072,129.078 20.304,126.362 
			23.047,132.2 44.09,111.061 43.367,111.061 		"/>
		<polygon fill="#EBC300" points="108.886,18.218 126.82,0.2 124.117,20.67 129.928,23.427 108.886,44.566 		"/>
		<polygon fill="#D5A609" points="29.729,111.061 17.748,111.061 17.748,115.024 		"/>
		<polygon opacity="0.1" fill="#211915" points="124.117,20.67 126.691,1.18 125.875,1.887 123.395,20.67 129.206,23.427 
			108.886,43.84 108.886,44.566 129.928,23.427 		"/>
		<polygon fill="#D5A609" points="108.886,36.495 114.137,18.189 108.886,18.189 		"/>
		<polygon fill="#EBC300" points="17.748,115.024 114.137,18.189 117.244,41.415 40.867,118.146 		"/>
		<polygon opacity="0.3" fill="#FFFFFF" points="114.137,18.916 117.16,41.5 117.244,41.415 114.137,18.189 17.748,115.024 
			18.384,115.109 		"/>
		<polygon opacity="0.1" fill="#211915" points="40.867,117.42 18.384,114.384 17.748,115.024 40.867,118.146 117.244,41.415 
			117.16,40.774 		"/>
		<polygon opacity="0.3" fill="#FFFFFF" points="109.648,18.189 126.651,1.107 126.763,0.271 108.926,18.189 		"/>
	</g>
	<g>
		<path d="M54.376,85.628l0.915-0.885l5.293,4.118l-3.889-5.473l0.916-0.885l4.711,6.729l-1.438,1.387L54.376,85.628z"/>
		<path d="M63.575,88.023l-5.611-5.863l2.499-2.413l0.802,0.84l-1.583,1.527l1.565,1.636l1.257-1.216l0.798,0.835l-1.257,1.215
			l1.643,1.717l1.583-1.529l0.801,0.839L63.575,88.023z"/>
		<path d="M66.639,85.063l-5.61-5.862l1.381-1.333c0.469-0.453,0.917-0.675,1.347-0.664c0.429,0.011,0.862,0.244,1.301,0.701
			l0.442,0.463c0.576,0.602,0.756,1.19,0.539,1.767c0.308-0.118,0.607-0.118,0.898-0.001s0.591,0.34,0.901,0.662l0.865,0.904
			c0.312,0.324,0.566,0.534,0.767,0.628l-0.916,0.884c-0.086-0.045-0.15-0.082-0.19-0.108c-0.043-0.027-0.113-0.084-0.215-0.172
			s-0.225-0.206-0.369-0.355l-0.88-0.921c-0.257-0.269-0.488-0.415-0.694-0.438c-0.203-0.022-0.41,0.066-0.619,0.269l-0.319,0.309
			l2.287,2.385L66.639,85.063z M64.471,80.957l0.358-0.346c0.181-0.175,0.274-0.355,0.276-0.538
			c0.002-0.183-0.105-0.387-0.321-0.613l-0.553-0.576c-0.199-0.211-0.383-0.328-0.549-0.355c-0.166-0.024-0.33,0.041-0.493,0.196
			l-0.443,0.431L64.471,80.957z"/>
		<path d="M68.5,80.558l-0.346-0.359l0.94-0.907l0.399,0.418c0.365,0.382,0.693,0.43,0.986,0.147
			c0.294-0.284,0.257-0.614-0.107-0.997c-0.157-0.163-0.336-0.285-0.541-0.367c-0.203-0.082-0.412-0.13-0.625-0.147
			c-0.214-0.016-0.438-0.022-0.674-0.019c-0.236,0.007-0.481,0.008-0.732,0.009c-0.253,0.001-0.501-0.019-0.741-0.058
			c-0.242-0.04-0.49-0.124-0.747-0.255c-0.255-0.131-0.491-0.31-0.708-0.536c-0.45-0.471-0.674-0.956-0.669-1.451
			c0.005-0.494,0.221-0.946,0.642-1.354c0.422-0.407,0.869-0.594,1.344-0.561c0.473,0.033,0.934,0.285,1.386,0.758l0.18,0.187
			L67.62,75.9l-0.235-0.242c-0.368-0.386-0.706-0.429-1.014-0.133c-0.152,0.148-0.224,0.305-0.211,0.471
			c0.011,0.164,0.112,0.347,0.306,0.549c0.155,0.163,0.338,0.286,0.541,0.367c0.206,0.078,0.416,0.127,0.633,0.14
			c0.214,0.015,0.443,0.017,0.682,0.01c0.239-0.007,0.482-0.01,0.731-0.006c0.248,0.003,0.493,0.024,0.733,0.067
			c0.239,0.039,0.487,0.127,0.74,0.258c0.256,0.131,0.491,0.312,0.707,0.537c0.45,0.472,0.683,0.948,0.693,1.429
			c0.009,0.479-0.197,0.924-0.622,1.336c-0.426,0.41-0.887,0.609-1.384,0.6C69.426,81.271,68.951,81.031,68.5,80.558z"/>
		<path d="M73.1,78.821l-5.61-5.861l0.916-0.885l5.61,5.861L73.1,78.821z"/>
		<path d="M73.26,75.96l-2.919-3.049c-0.448-0.469-0.675-0.947-0.68-1.435c-0.005-0.489,0.217-0.951,0.665-1.383
			c0.449-0.435,0.915-0.637,1.398-0.611c0.483,0.024,0.951,0.271,1.399,0.74l2.919,3.05c0.448,0.469,0.676,0.947,0.682,1.435
			c0.007,0.486-0.214,0.946-0.663,1.38c-0.447,0.433-0.916,0.638-1.4,0.613C74.176,76.677,73.708,76.431,73.26,75.96z
			 M69.608,70.322l-0.323-1.48l0.898-0.868l0.043,1.752L69.608,70.322z M74.23,75.133c0.37,0.388,0.715,0.428,1.033,0.119
			c0.315-0.305,0.289-0.65-0.081-1.038l-3.028-3.164c-0.368-0.385-0.71-0.423-1.025-0.117c-0.32,0.306-0.295,0.652,0.072,1.038
			L74.23,75.133z"/>
		<path d="M77.975,74.112l-5.61-5.861l1.235-1.194l4.302,2.604l-3.36-3.512l0.817-0.79l5.609,5.861l-0.942,0.913l-5.196-3.146
			l4.062,4.242L77.975,74.112z"/>
		<path d="M82.829,69.424l-5.611-5.862l1.384-1.336c0.469-0.453,0.919-0.675,1.349-0.665c0.43,0.009,0.863,0.243,1.301,0.701
			l0.2,0.208c0.574,0.6,0.753,1.185,0.537,1.756c0.624-0.263,1.254-0.066,1.884,0.595l0.459,0.478
			c0.432,0.452,0.644,0.911,0.635,1.376c-0.009,0.466-0.241,0.918-0.697,1.358L82.829,69.424z M80.418,65.064l0.36-0.348
			c0.183-0.176,0.275-0.356,0.278-0.54c0.002-0.184-0.104-0.386-0.318-0.61l-0.312-0.327c-0.202-0.211-0.385-0.328-0.551-0.354
			c-0.166-0.024-0.333,0.042-0.495,0.199l-0.445,0.43L80.418,65.064z M82.943,67.701l0.523-0.507
			c0.161-0.155,0.238-0.312,0.233-0.478c-0.004-0.164-0.106-0.35-0.31-0.559l-0.488-0.511c-0.257-0.267-0.479-0.408-0.669-0.424
			c-0.189-0.016-0.39,0.079-0.602,0.283l-0.411,0.397L82.943,67.701z"/>
		<path d="M86.211,66.157l-5.61-5.862l2.498-2.413L83.9,58.72l-1.584,1.529l1.566,1.636l1.257-1.214l0.798,0.834l-1.258,1.214
			l1.644,1.717l1.583-1.528l0.802,0.837L86.211,66.157z"/>
		<path d="M84.197,58.433l-0.802-0.838l2.836-2.739l0.802,0.837l-0.96,0.928l4.808,5.023l-0.916,0.884l-4.807-5.023L84.197,58.433z"
			/>
		<path d="M91.683,60.871l-4.682-6.759l1.414-1.367l6.54,4.965l-0.917,0.884l-1.177-0.909l-1.122,1.084l0.859,1.216L91.683,60.871z
			 M91.096,57.858l0.883-0.854l-3.268-2.523L91.096,57.858z"/>
	</g>
</g>
</svg>
